<svg width="162" height="37" viewBox="0 0 162 37" fill="none" xmlns="http://www.w3.org/2000/svg">
<rect width="22.0447" height="7.03208" rx="3.51604" transform="matrix(0.927494 -0.373839 0.758766 0.651364 135.494 19.8304)" fill="#4D80E4"/>
<rect width="22.0447" height="7.03208" rx="3.51604" transform="matrix(0.927494 -0.373839 0.758766 0.651364 135.494 28.4196)" fill="#2E279D"/>
<rect width="22.0447" height="7.03208" rx="3.51604" transform="matrix(0.927494 -0.373839 0.758766 0.651364 135.494 11.2412)" fill="#46B3E6"/>
<path d="M18.75 25.1V29H2.49V8H18.36V11.9H7.32V16.46H17.07V20.24H7.32V25.1H18.75ZM22.287 6.74H26.967V29H22.287V6.74ZM47.1204 20.99C47.1204 21.05 47.0904 21.47 47.0304 22.25H34.8204C35.0404 23.25 35.5604 24.04 36.3804 24.62C37.2004 25.2 38.2204 25.49 39.4404 25.49C40.2804 25.49 41.0204 25.37 41.6604 25.13C42.3204 24.87 42.9304 24.47 43.4904 23.93L45.9804 26.63C44.4604 28.37 42.2404 29.24 39.3204 29.24C37.5004 29.24 35.8904 28.89 34.4904 28.19C33.0904 27.47 32.0104 26.48 31.2504 25.22C30.4904 23.96 30.1104 22.53 30.1104 20.93C30.1104 19.35 30.4804 17.93 31.2204 16.67C31.9804 15.39 33.0104 14.4 34.3104 13.7C35.6304 12.98 37.1004 12.62 38.7204 12.62C40.3004 12.62 41.7304 12.96 43.0104 13.64C44.2904 14.32 45.2904 15.3 46.0104 16.58C46.7504 17.84 47.1204 19.31 47.1204 20.99ZM38.7504 16.16C37.6904 16.16 36.8004 16.46 36.0804 17.06C35.3604 17.66 34.9204 18.48 34.7604 19.52H42.7104C42.5504 18.5 42.1104 17.69 41.3904 17.09C40.6704 16.47 39.7904 16.16 38.7504 16.16ZM58.0362 29.24C56.3162 29.24 54.7662 28.89 53.3862 28.19C52.0262 27.47 50.9562 26.48 50.1762 25.22C49.4162 23.96 49.0362 22.53 49.0362 20.93C49.0362 19.33 49.4162 17.9 50.1762 16.64C50.9562 15.38 52.0262 14.4 53.3862 13.7C54.7662 12.98 56.3162 12.62 58.0362 12.62C59.7362 12.62 61.2162 12.98 62.4762 13.7C63.7562 14.4 64.6862 15.41 65.2662 16.73L61.6362 18.68C60.7962 17.2 59.5862 16.46 58.0062 16.46C56.7862 16.46 55.7762 16.86 54.9762 17.66C54.1762 18.46 53.7762 19.55 53.7762 20.93C53.7762 22.31 54.1762 23.4 54.9762 24.2C55.7762 25 56.7862 25.4 58.0062 25.4C59.6062 25.4 60.8162 24.66 61.6362 23.18L65.2662 25.16C64.6862 26.44 63.7562 27.44 62.4762 28.16C61.2162 28.88 59.7362 29.24 58.0362 29.24ZM78.6052 28.22C78.1452 28.56 77.5752 28.82 76.8952 29C76.2352 29.16 75.5352 29.24 74.7952 29.24C72.8752 29.24 71.3852 28.75 70.3252 27.77C69.2852 26.79 68.7652 25.35 68.7652 23.45V16.82H66.2752V13.22H68.7652V9.29H73.4452V13.22H77.4652V16.82H73.4452V23.39C73.4452 24.07 73.6152 24.6 73.9552 24.98C74.3152 25.34 74.8152 25.52 75.4552 25.52C76.1952 25.52 76.8252 25.32 77.3452 24.92L78.6052 28.22ZM81.2323 12.86H85.9123V29H81.2323V12.86ZM83.5723 10.61C82.7123 10.61 82.0123 10.36 81.4723 9.86C80.9323 9.36 80.6623 8.74 80.6623 8C80.6623 7.26 80.9323 6.64 81.4723 6.14C82.0123 5.64 82.7123 5.39 83.5723 5.39C84.4323 5.39 85.1323 5.63 85.6723 6.11C86.2123 6.59 86.4823 7.19 86.4823 7.91C86.4823 8.69 86.2123 9.34 85.6723 9.86C85.1323 10.36 84.4323 10.61 83.5723 10.61ZM97.9357 29.24C96.2357 29.24 94.7057 28.89 93.3457 28.19C92.0057 27.47 90.9557 26.48 90.1957 25.22C89.4357 23.96 89.0557 22.53 89.0557 20.93C89.0557 19.33 89.4357 17.9 90.1957 16.64C90.9557 15.38 92.0057 14.4 93.3457 13.7C94.7057 12.98 96.2357 12.62 97.9357 12.62C99.6357 12.62 101.156 12.98 102.496 13.7C103.836 14.4 104.886 15.38 105.646 16.64C106.406 17.9 106.786 19.33 106.786 20.93C106.786 22.53 106.406 23.96 105.646 25.22C104.886 26.48 103.836 27.47 102.496 28.19C101.156 28.89 99.6357 29.24 97.9357 29.24ZM97.9357 25.4C99.1357 25.4 100.116 25 100.876 24.2C101.656 23.38 102.046 22.29 102.046 20.93C102.046 19.57 101.656 18.49 100.876 17.69C100.116 16.87 99.1357 16.46 97.9357 16.46C96.7357 16.46 95.7457 16.87 94.9657 17.69C94.1857 18.49 93.7957 19.57 93.7957 20.93C93.7957 22.29 94.1857 23.38 94.9657 24.2C95.7457 25 96.7357 25.4 97.9357 25.4ZM119.724 12.62C121.724 12.62 123.334 13.22 124.554 14.42C125.794 15.62 126.414 17.4 126.414 19.76V29H121.734V20.48C121.734 19.2 121.454 18.25 120.894 17.63C120.334 16.99 119.524 16.67 118.464 16.67C117.284 16.67 116.344 17.04 115.644 17.78C114.944 18.5 114.594 19.58 114.594 21.02V29H109.914V12.86H114.384V14.75C115.004 14.07 115.774 13.55 116.694 13.19C117.614 12.81 118.624 12.62 119.724 12.62Z" fill="black"/>
</svg>
